<svg width="390" height="291" viewBox="0 0 390 291" fill="none" xmlns="http://www.w3.org/2000/svg">
<path d="M350.922 267.922H325.088V268.117H350.922V267.922Z" fill="#EBEBEB"/>
<path d="M258.352 270.044H251.573V270.239H258.352V270.044Z" fill="#EBEBEB"/>
<path d="M324.308 260.684H309.34V260.879H324.308V260.684Z" fill="#EBEBEB"/>
<path d="M74.607 261.994H40.9188V262.189H74.607V261.994Z" fill="#EBEBEB"/>
<path d="M86.4942 261.994H81.5568V262.189H86.4942V261.994Z" fill="#EBEBEB"/>
<path d="M175.617 265.286H102.547V265.481H175.617V265.286Z" fill="#EBEBEB"/>
<path d="M184.86 220.584H34.2498C33.0699 220.582 31.9391 220.112 31.1055 219.277C30.272 218.442 29.8038 217.31 29.8038 216.13V4.4148C29.8141 3.2417 30.2868 2.12002 31.1192 1.29341C31.9517 0.466797 33.0767 0.00200958 34.2498 0H184.86C186.041 0 187.174 0.469238 188.009 1.30449C188.845 2.13974 189.314 3.27258 189.314 4.4538V216.13C189.314 217.311 188.845 218.444 188.009 219.28C187.174 220.115 186.041 220.584 184.86 220.584ZM34.2498 0.156001C33.1217 0.158067 32.0404 0.607671 31.2434 1.40613C30.4464 2.20458 29.9988 3.28665 29.9988 4.4148V216.13C29.9988 217.258 30.4464 218.34 31.2434 219.139C32.0404 219.937 33.1217 220.387 34.2498 220.389H184.86C185.989 220.387 187.071 219.938 187.869 219.139C188.667 218.341 189.117 217.259 189.119 216.13V4.4148C189.117 3.28593 188.667 2.20388 187.869 1.40565C187.071 0.607417 185.989 0.158062 184.86 0.156001H34.2498Z" fill="#EBEBEB"/>
<path d="M353.582 220.584H202.964C201.783 220.582 200.652 220.112 199.817 219.277C198.982 218.442 198.512 217.311 198.51 216.13V4.4148C198.522 3.24099 198.997 2.11932 199.83 1.29292C200.664 0.466525 201.79 0.00198767 202.964 0H353.582C354.754 0.00405951 355.877 0.469754 356.707 1.29615C357.538 2.12254 358.01 3.24305 358.02 4.4148V216.13C358.02 217.309 357.553 218.439 356.721 219.274C355.889 220.109 354.76 220.58 353.582 220.584ZM202.964 0.156001C201.835 0.158062 200.753 0.607417 199.955 1.40565C199.156 2.20388 198.707 3.28593 198.705 4.4148V216.13C198.707 217.259 199.156 218.341 199.955 219.139C200.753 219.938 201.835 220.387 202.964 220.389H353.582C354.711 220.387 355.793 219.938 356.591 219.139C357.389 218.341 357.839 217.259 357.841 216.13V4.4148C357.839 3.28593 357.389 2.20388 356.591 1.40565C355.793 0.607417 354.711 0.158062 353.582 0.156001H202.964Z" fill="#EBEBEB"/>
<path d="M390 255.372H0V255.567H390V255.372Z" fill="#EBEBEB"/>
<path d="M39.5148 204.157L64.4748 204.064C65.4471 204.064 66.3795 204.45 67.0671 205.137C67.7546 205.825 68.1408 206.757 68.1408 207.73V216.536C68.1408 217.51 68.5279 218.445 69.2168 219.134C69.9058 219.823 70.8403 220.21 71.8146 220.21H108.475C109.448 220.21 110.382 219.824 111.072 219.137C111.762 218.45 112.152 217.517 112.156 216.544V184.205C112.157 183.724 112.253 183.248 112.438 182.804C112.624 182.36 112.895 181.957 113.236 181.618C113.577 181.279 113.982 181.01 114.427 180.828C114.872 180.645 115.349 180.552 115.83 180.554H123.63C124.604 180.554 125.539 180.167 126.228 179.478C126.917 178.789 127.304 177.855 127.304 176.881V159.237C127.304 158.265 127.69 157.332 128.378 156.645C129.065 155.957 129.998 155.571 130.97 155.571H143.754C144.726 155.573 145.657 155.96 146.344 156.647C147.031 157.334 147.418 158.265 147.42 159.237V164.432C147.42 165.406 147.807 166.341 148.496 167.03C149.185 167.719 150.119 168.106 151.094 168.106H152.287C153.259 168.106 154.192 167.719 154.879 167.032C155.567 166.344 155.953 165.412 155.953 164.44V145.236C155.953 144.262 156.34 143.327 157.029 142.638C157.718 141.949 158.653 141.562 159.627 141.562H172.286C173.26 141.564 174.193 141.952 174.882 142.641C175.57 143.329 175.958 144.262 175.96 145.236V164.471C175.96 165.443 176.346 166.376 177.034 167.063C177.721 167.751 178.654 168.137 179.626 168.137H183.573C184.545 168.137 185.478 167.751 186.165 167.063C186.853 166.376 187.239 165.443 187.239 164.471V125.705V106.283H188.019V118.248C188.087 118.142 188.163 118.04 188.245 117.944L217.378 101.213C217.994 100.542 218.345 101.213 218.345 100.316V76.3698L220.35 74.9346L256.745 48.8592V38.4774H257.525V48.2976L257.673 48.1884V164.479C257.673 165.453 258.06 166.387 258.749 167.076C259.438 167.765 260.372 168.152 261.347 168.152H266.128C266.61 168.153 267.088 168.059 267.533 167.876C267.979 167.692 268.384 167.422 268.725 167.081C269.067 166.741 269.337 166.336 269.522 165.891C269.707 165.446 269.802 164.969 269.802 164.486L270.949 121.072C270.957 120.653 271.056 120.24 271.237 119.863L278.351 105.043H278.881V88.2258C278.881 87.439 279.193 86.6843 279.749 86.1272C280.304 85.5701 281.058 85.2561 281.845 85.254H283.28V73.3668H284.06V85.254H284.84C285.628 85.2561 286.383 85.5698 286.939 86.1267C287.496 86.6836 287.81 87.4383 287.812 88.2258V89.0058H291.143V88.2258C291.143 87.439 291.455 86.6843 292.01 86.1272C292.566 85.5701 293.32 85.2561 294.107 85.254H295.37V73.3668H296.15V85.254H297.071C297.858 85.2561 298.613 85.5698 299.17 86.1267C299.727 86.6836 300.041 87.4383 300.043 88.2258V105.011H300.573L307.694 119.831C307.872 120.21 307.971 120.622 307.983 121.04L309.153 164.408C309.153 165.383 309.54 166.317 310.229 167.006C310.918 167.695 311.852 168.082 312.827 168.082H319.543C320.514 168.084 321.445 168.471 322.133 169.158C322.82 169.845 323.207 170.777 323.209 171.748V176.803C323.208 177.284 323.302 177.762 323.486 178.207C323.669 178.652 323.939 179.057 324.28 179.397C324.621 179.738 325.025 180.008 325.47 180.192C325.916 180.376 326.393 180.47 326.875 180.469H331.672C332.537 180.464 333.375 180.766 334.038 181.322C334.701 181.877 335.145 182.65 335.291 183.503L348.067 250.645C348.114 250.874 348.138 251.106 348.137 251.339C348.133 252.313 347.744 253.246 347.054 253.933C346.364 254.62 345.43 255.005 344.456 255.005H39.5538C38.7816 255.06 39.5148 204.157 39.5148 204.157Z" fill="#F5F5F5"/>
<path d="M341.312 35.4276H289.918C283.335 35.4276 281.744 26.208 287.96 24.0474L288.202 23.9694C281.323 18.2364 296.4 6.15417 312.78 22.8852C311.501 17.3082 326.04 19.3206 330.525 26.9334C332.14 21.9336 346.039 30.615 341.312 35.4276Z" fill="#F5F5F5"/>
<path d="M82.758 106.025H53.7186C53.7186 106.025 46.9092 103.459 47.7906 96.6654C48.672 89.8716 58.9524 95.5344 58.9524 95.5344C58.9524 95.5344 55.8324 86.0574 65.793 88.7484C68.5997 89.465 71.1328 90.9935 73.0751 93.1426C75.0175 95.2917 76.2829 97.9659 76.713 100.831C76.713 100.831 89.8014 98.553 82.758 106.025Z" fill="#F5F5F5"/>
<path d="M289.606 180.703H282.259V207.043H289.606V180.703Z" fill="#E0E0E0"/>
<path d="M304.036 197.629H296.689V207.043H304.036V197.629Z" fill="#EBEBEB"/>
<path d="M318.458 192.964H311.111V207.035H318.458V192.964Z" fill="#EBEBEB"/>
<path d="M332.888 201.646H325.541V207.043H332.888V201.646Z" fill="#EBEBEB"/>
<path d="M347.318 187.645H339.971V207.035H347.318V187.645Z" fill="#E6E6E6"/>
<path d="M96.1194 182.676H42.6738V189.22H96.1194V182.676Z" fill="#EBEBEB"/>
<path d="M115.222 191.966H42.6738V198.51H115.222V191.966Z" fill="#E0E0E0"/>
<path d="M63.8352 201.17H42.6738V207.714H63.8352V201.17Z" fill="#EBEBEB"/>
<path d="M234.38 67.1304V65.8704L237.62 62.8104C237.876 62.5784 238.064 62.3704 238.184 62.1864C238.304 62.0024 238.384 61.8344 238.424 61.6824C238.472 61.5304 238.496 61.3904 238.496 61.2624C238.496 60.9264 238.38 60.6704 238.148 60.4944C237.924 60.3104 237.592 60.2184 237.152 60.2184C236.8 60.2184 236.472 60.2864 236.168 60.4224C235.872 60.5584 235.62 60.7704 235.412 61.0584L233.996 60.1464C234.316 59.6664 234.764 59.2864 235.34 59.0064C235.916 58.7264 236.58 58.5864 237.332 58.5864C237.956 58.5864 238.5 58.6904 238.964 58.8984C239.436 59.0984 239.8 59.3824 240.056 59.7504C240.32 60.1184 240.452 60.5584 240.452 61.0704C240.452 61.3424 240.416 61.6144 240.344 61.8864C240.28 62.1504 240.144 62.4304 239.936 62.7264C239.736 63.0224 239.44 63.3544 239.048 63.7224L236.36 66.2544L235.988 65.5464H240.728V67.1304H234.38ZM244.255 67.2744C243.671 67.2744 243.091 67.1984 242.515 67.0464C241.939 66.8864 241.451 66.6624 241.051 66.3744L241.807 64.8864C242.127 65.1184 242.499 65.3024 242.923 65.4384C243.347 65.5744 243.775 65.6424 244.207 65.6424C244.695 65.6424 245.079 65.5464 245.359 65.3544C245.639 65.1624 245.779 64.8984 245.779 64.5624C245.779 64.2424 245.655 63.9904 245.407 63.8064C245.159 63.6224 244.759 63.5304 244.207 63.5304H243.319V62.2464L245.659 59.5944L245.875 60.2904H241.471V58.7304H247.351V59.9904L245.023 62.6424L244.039 62.0784H244.603C245.635 62.0784 246.415 62.3104 246.943 62.7744C247.471 63.2384 247.735 63.8344 247.735 64.5624C247.735 65.0344 247.611 65.4784 247.363 65.8944C247.115 66.3024 246.735 66.6344 246.223 66.8904C245.711 67.1464 245.055 67.2744 244.255 67.2744ZM252.559 67.1304V58.7304H254.167L257.743 64.6584H256.891L260.407 58.7304H262.003L262.027 67.1304H260.203L260.191 61.5264H260.527L257.719 66.2424H256.843L253.975 61.5264H254.383V67.1304H252.559ZM264.019 67.1304V58.7304H265.963V67.1304H264.019ZM267.957 67.1304V58.7304H269.901V65.5464H274.113V67.1304H267.957ZM276.987 62.1144H281.031V63.6264H276.987V62.1144ZM277.131 65.5704H281.703V67.1304H275.199V58.7304H281.547V60.2904H277.131V65.5704ZM286.01 67.2744C285.338 67.2744 284.694 67.1864 284.078 67.0104C283.462 66.8264 282.966 66.5904 282.59 66.3024L283.25 64.8384C283.61 65.0944 284.034 65.3064 284.522 65.4744C285.018 65.6344 285.518 65.7144 286.022 65.7144C286.406 65.7144 286.714 65.6784 286.946 65.6064C287.186 65.5264 287.362 65.4184 287.474 65.2824C287.586 65.1464 287.642 64.9904 287.642 64.8144C287.642 64.5904 287.554 64.4144 287.378 64.2864C287.202 64.1504 286.97 64.0424 286.682 63.9624C286.394 63.8744 286.074 63.7944 285.722 63.7224C285.378 63.6424 285.03 63.5464 284.678 63.4344C284.334 63.3224 284.018 63.1784 283.73 63.0024C283.442 62.8264 283.206 62.5944 283.022 62.3064C282.846 62.0184 282.758 61.6504 282.758 61.2024C282.758 60.7224 282.886 60.2864 283.142 59.8944C283.406 59.4944 283.798 59.1784 284.318 58.9464C284.846 58.7064 285.506 58.5864 286.298 58.5864C286.826 58.5864 287.346 58.6504 287.858 58.7784C288.37 58.8984 288.822 59.0824 289.214 59.3304L288.614 60.8064C288.222 60.5824 287.83 60.4184 287.438 60.3144C287.046 60.2024 286.662 60.1464 286.286 60.1464C285.91 60.1464 285.602 60.1904 285.362 60.2784C285.122 60.3664 284.95 60.4824 284.846 60.6264C284.742 60.7624 284.69 60.9224 284.69 61.1064C284.69 61.3224 284.778 61.4984 284.954 61.6344C285.13 61.7624 285.362 61.8664 285.65 61.9464C285.938 62.0264 286.254 62.1064 286.598 62.1864C286.95 62.2664 287.298 62.3584 287.642 62.4624C287.994 62.5664 288.314 62.7064 288.602 62.8824C288.89 63.0584 289.122 63.2904 289.298 63.5784C289.482 63.8664 289.574 64.2304 289.574 64.6704C289.574 65.1424 289.442 65.5744 289.178 65.9664C288.914 66.3584 288.518 66.6744 287.99 66.9144C287.47 67.1544 286.81 67.2744 286.01 67.2744Z" fill="#E0E0E0"/>
<path d="M195 290.168C278.524 290.168 346.234 286.215 346.234 281.338C346.234 276.462 278.524 272.509 195 272.509C111.476 272.509 43.7658 276.462 43.7658 281.338C43.7658 286.215 111.476 290.168 195 290.168Z" fill="#F5F5F5"/>
<path d="M267.197 86.2446H246.558L225.927 106.876L187.122 126.282H146.468L106.431 166.319H77.5788V173.238H109.294L149.331 133.201H188.752L230.022 112.562L249.428 93.1632H268.827L297.718 78.7176V70.98L267.197 86.2446Z" fill="#099137"/>
<path d="M77.337 136.656C76.4119 136.651 75.4948 136.829 74.6386 137.179C73.7824 137.53 73.0039 138.046 72.3479 138.698C71.6919 139.351 71.1713 140.126 70.8161 140.981C70.4609 141.835 70.278 142.751 70.278 143.676C70.278 146.156 73.1406 151.219 75.2154 154.596C76.401 156.507 77.337 157.864 77.337 157.864C77.337 157.864 78.273 156.507 79.443 154.596C81.5256 151.25 84.3804 146.188 84.3804 143.676C84.3804 142.752 84.1981 141.837 83.8438 140.984C83.4896 140.131 82.9704 139.356 82.316 138.704C81.6617 138.052 80.885 137.535 80.0306 137.184C79.1762 136.832 78.2609 136.653 77.337 136.656ZM77.337 147.178C76.7008 147.18 76.0784 146.992 75.5487 146.64C75.019 146.287 74.6059 145.786 74.3617 145.198C74.1175 144.61 74.0532 143.964 74.177 143.34C74.3007 142.715 74.607 142.142 75.0569 141.692C75.5068 141.242 76.0801 140.936 76.7042 140.812C77.3283 140.689 77.9751 140.753 78.5626 140.997C79.1501 141.241 79.652 141.654 80.0045 142.184C80.357 142.714 80.5444 143.336 80.5428 143.972C80.5428 144.823 80.2051 145.638 79.6039 146.239C79.0027 146.84 78.1872 147.178 77.337 147.178Z" fill="#099137"/>
<g opacity="0.5">
<path d="M267.197 86.2446H246.558L225.927 106.876L187.122 126.282H146.468L106.431 166.319H77.5788V173.238H109.294L149.331 133.201H188.752L230.022 112.562L249.428 93.1632H268.827L297.718 78.7176V70.98L267.197 86.2446Z" fill="white"/>
<path d="M77.337 136.656C76.4119 136.651 75.4948 136.829 74.6386 137.179C73.7824 137.53 73.0039 138.046 72.3479 138.698C71.6919 139.351 71.1713 140.126 70.8161 140.981C70.4609 141.835 70.278 142.751 70.278 143.676C70.278 146.156 73.1406 151.219 75.2154 154.596C76.401 156.507 77.337 157.864 77.337 157.864C77.337 157.864 78.273 156.507 79.443 154.596C81.5256 151.25 84.3804 146.188 84.3804 143.676C84.3804 142.752 84.1981 141.837 83.8438 140.984C83.4896 140.131 82.9704 139.356 82.316 138.704C81.6617 138.052 80.885 137.535 80.0306 137.184C79.1762 136.832 78.2609 136.653 77.337 136.656ZM77.337 147.178C76.7008 147.18 76.0784 146.992 75.5487 146.64C75.019 146.287 74.6059 145.786 74.3617 145.198C74.1175 144.61 74.0532 143.964 74.177 143.34C74.3007 142.715 74.607 142.142 75.0569 141.692C75.5068 141.242 76.0801 140.936 76.7042 140.812C77.3283 140.689 77.9751 140.753 78.5626 140.997C79.1501 141.241 79.652 141.654 80.0045 142.184C80.357 142.714 80.5444 143.336 80.5428 143.972C80.5428 144.823 80.2051 145.638 79.6039 146.239C79.0027 146.84 78.1872 147.178 77.337 147.178Z" fill="white"/>
</g>
<path d="M297.718 37.8378C296.54 37.8367 295.374 38.0677 294.285 38.5176C293.196 38.9674 292.207 39.6273 291.373 40.4595C290.54 41.2917 289.878 42.28 289.426 43.3679C288.974 44.4558 288.741 45.622 288.74 46.8C288.74 49.92 292.375 56.4018 295.027 60.6606C296.533 63.102 297.718 64.8258 297.718 64.8258C297.718 64.8258 298.912 63.102 300.409 60.6606C303.053 56.4018 306.688 49.9512 306.688 46.8C306.686 44.4223 305.74 42.1428 304.058 40.4623C302.376 38.7817 300.096 37.8378 297.718 37.8378ZM297.718 51.2304C296.91 51.2304 296.12 50.9907 295.447 50.5416C294.775 50.0924 294.251 49.4541 293.942 48.7073C293.633 47.9604 293.552 47.1386 293.71 46.3458C293.867 45.553 294.257 44.8247 294.828 44.2531C295.4 43.6815 296.128 43.2922 296.921 43.1345C297.714 42.9768 298.535 43.0577 299.282 43.3671C300.029 43.6764 300.668 44.2003 301.117 44.8724C301.566 45.5446 301.805 46.3348 301.805 47.1432C301.806 47.6802 301.701 48.2121 301.496 48.7085C301.291 49.2048 300.99 49.6558 300.611 50.0356C300.231 50.4153 299.78 50.7163 299.284 50.9213C298.787 51.1264 298.255 51.2314 297.718 51.2304Z" fill="#099137"/>
<g opacity="0.5">
<path d="M297.718 37.8378C296.54 37.8367 295.374 38.0677 294.285 38.5176C293.196 38.9674 292.207 39.6273 291.373 40.4595C290.54 41.2917 289.878 42.28 289.426 43.3679C288.974 44.4558 288.741 45.622 288.74 46.8C288.74 49.92 292.375 56.4018 295.027 60.6606C296.533 63.102 297.718 64.8258 297.718 64.8258C297.718 64.8258 298.912 63.102 300.409 60.6606C303.053 56.4018 306.688 49.9512 306.688 46.8C306.686 44.4223 305.74 42.1428 304.058 40.4623C302.376 38.7817 300.096 37.8378 297.718 37.8378ZM297.718 51.2304C296.91 51.2304 296.12 50.9907 295.447 50.5416C294.775 50.0924 294.251 49.4541 293.942 48.7073C293.633 47.9604 293.552 47.1386 293.71 46.3458C293.867 45.553 294.257 44.8247 294.828 44.2531C295.4 43.6815 296.128 43.2922 296.921 43.1345C297.714 42.9768 298.535 43.0577 299.282 43.3671C300.029 43.6764 300.668 44.2003 301.117 44.8724C301.566 45.5446 301.805 46.3348 301.805 47.1432C301.806 47.6802 301.701 48.2121 301.496 48.7085C301.291 49.2048 300.99 49.6558 300.611 50.0356C300.231 50.4153 299.78 50.7163 299.284 50.9213C298.787 51.1264 298.255 51.2314 297.718 51.2304Z" fill="white"/>
</g>
<path d="M129.854 38.7738C129.557 38.5747 129.197 38.4925 128.843 38.5429C128.489 38.5933 128.166 38.7727 127.936 39.0468L126.009 41.925L116.743 36.309C116.447 36.1414 116.102 36.0824 115.767 36.1423C115.432 36.2021 115.129 36.3769 114.91 36.6366L111.719 40.7316C111.604 40.8559 111.517 41.0031 111.462 41.1637C111.408 41.3243 111.388 41.4945 111.405 41.6632C111.421 41.8319 111.472 41.9953 111.556 42.1426C111.64 42.2899 111.754 42.4177 111.891 42.5178C112.188 42.7169 112.548 42.7991 112.903 42.7487C113.257 42.6983 113.58 42.5189 113.81 42.2448L116.197 39.1248L118.209 40.3416L113.919 45.8796L106.439 55.4736C106.329 55.6027 106.249 55.7535 106.202 55.9162C106.155 56.0788 106.144 56.2495 106.168 56.417C106.192 56.5844 106.252 56.7448 106.343 56.8874C106.434 57.03 106.555 57.1516 106.696 57.2442C106.913 57.3888 107.169 57.4648 107.429 57.4626C107.654 57.4645 107.877 57.4148 108.08 57.3175C108.282 57.2201 108.46 57.0777 108.599 56.901L115.073 48.6096L115.261 48.3678C115.448 48.0803 115.739 47.876 116.073 47.7976C116.407 47.7191 116.759 47.7725 117.055 47.9466L118.895 49.14L113.95 51.9402C113.797 52.0183 113.661 52.1263 113.55 52.2579C113.439 52.3895 113.356 52.5419 113.305 52.7063C113.254 52.8706 113.237 53.0435 113.254 53.2147C113.271 53.3859 113.322 53.5519 113.404 53.703C113.601 53.9949 113.903 54.1998 114.247 54.2753C114.592 54.3508 114.951 54.2911 115.253 54.1086L122.054 50.2554C122.251 50.1486 122.418 49.9954 122.542 49.8091C122.665 49.6229 122.742 49.4093 122.764 49.1868C122.78 48.9744 122.739 48.7616 122.644 48.5709C122.549 48.3801 122.405 48.2183 122.226 48.1026L120.557 47.0262L123.24 43.368L125.463 44.7174C125.674 44.8398 125.913 44.9069 126.157 44.9124C126.373 44.9088 126.585 44.8604 126.781 44.7705C126.977 44.6805 127.153 44.5509 127.296 44.3898L130.026 40.56C130.141 40.4357 130.229 40.2885 130.283 40.1279C130.337 39.9674 130.357 39.7971 130.341 39.6284C130.325 39.4597 130.273 39.2963 130.189 39.1491C130.105 39.0018 129.991 38.8739 129.854 38.7738Z" fill="#099137"/>
<path d="M123.786 39.3744C124.485 39.3865 125.163 39.1374 125.689 38.6758C126.214 38.2142 126.548 37.5733 126.625 36.8784C126.641 36.5455 126.587 36.213 126.467 35.902C126.347 35.5909 126.164 35.3081 125.93 35.0713C125.695 34.8346 125.414 34.649 125.104 34.5264C124.794 34.4038 124.462 34.3468 124.129 34.359C123.43 34.347 122.752 34.5961 122.227 35.0577C121.702 35.5193 121.368 36.1602 121.29 36.855C121.273 37.1883 121.327 37.5213 121.446 37.8329C121.565 38.1445 121.748 38.4278 121.983 38.6648C122.218 38.9018 122.499 39.0873 122.81 39.2095C123.12 39.3317 123.453 39.3879 123.786 39.3744Z" fill="#099137"/>
<path d="M114.816 65.7852V67.0254H109.871V66.0426L112.398 63.6558C112.975 63.102 113.077 62.7666 113.077 62.4468C113.077 61.932 112.726 61.6668 112.031 61.6668C111.769 61.6574 111.508 61.7122 111.272 61.8264C111.035 61.9405 110.83 62.1107 110.674 62.322L109.574 61.6122C109.873 61.2104 110.266 60.8889 110.72 60.6766C111.173 60.4642 111.672 60.3676 112.172 60.3954C113.63 60.3954 114.605 61.1754 114.605 62.3298C114.596 62.7363 114.492 63.1349 114.301 63.4938C114.11 63.8528 113.838 64.162 113.506 64.3968L112 65.8164L114.816 65.7852Z" fill="#099137"/>
<path d="M115.44 63.7495C115.44 61.5889 116.633 60.3643 118.248 60.3643C119.863 60.3643 121.048 61.5889 121.048 63.7495C121.048 65.9101 119.863 67.1347 118.248 67.1347C116.633 67.1347 115.44 65.9101 115.44 63.7495ZM119.527 63.7495C119.527 62.2597 119.005 61.6435 118.248 61.6435C117.491 61.6435 116.969 62.2597 116.969 63.7495C116.969 65.2393 117.499 65.8555 118.248 65.8555C118.997 65.8555 119.519 65.2393 119.519 63.7495H119.527Z" fill="#099137"/>
<path d="M238.516 31.5666C238.516 29.406 239.717 28.1814 241.324 28.1814C242.931 28.1814 244.132 29.406 244.132 31.5666C244.132 33.7272 242.947 34.9518 241.324 34.9518C239.702 34.9518 238.516 33.7272 238.516 31.5666ZM242.603 31.5666C242.603 30.0768 242.081 29.4606 241.324 29.4606C240.568 29.4606 240.053 30.0768 240.053 31.5666C240.053 33.0564 240.575 33.6726 241.324 33.6726C242.073 33.6726 242.58 33.0564 242.58 31.5666H242.603Z" fill="#099137"/>
<path d="M250.279 32.7599C250.271 33.0697 250.199 33.3745 250.067 33.6552C249.936 33.9358 249.747 34.1862 249.514 34.3906C249.282 34.595 249.009 34.749 248.713 34.8429C248.418 34.9367 248.106 34.9685 247.798 34.9361C245.996 34.9361 244.873 33.8051 244.873 31.6913C244.873 29.4293 246.238 28.1657 248.212 28.1657C248.85 28.1461 249.481 28.3026 250.037 28.6181L249.475 29.7257C249.109 29.4974 248.682 29.3834 248.251 29.3981C247.999 29.3823 247.748 29.4211 247.513 29.5121C247.278 29.603 247.066 29.7438 246.891 29.9248C246.716 30.1057 246.582 30.3225 246.499 30.5602C246.416 30.7979 246.386 31.0507 246.41 31.3013C246.63 31.1021 246.887 30.949 247.167 30.8512C247.447 30.7534 247.744 30.7128 248.04 30.7319C248.322 30.7107 248.605 30.747 248.872 30.8387C249.14 30.9303 249.385 31.0755 249.595 31.2652C249.804 31.4549 249.973 31.6853 250.09 31.9422C250.208 32.1992 250.272 32.4774 250.279 32.7599ZM248.812 32.8301C248.812 32.6897 248.782 32.551 248.725 32.4231C248.667 32.2953 248.582 32.1813 248.476 32.089C248.371 31.9966 248.246 31.9279 248.112 31.8876C247.977 31.8472 247.836 31.8362 247.697 31.8551C247.558 31.84 247.417 31.8537 247.283 31.8953C247.149 31.937 247.026 32.0056 246.92 32.097C246.814 32.1885 246.727 32.3007 246.667 32.4268C246.606 32.5529 246.571 32.6902 246.566 32.8301C246.566 33.3917 246.987 33.8051 247.72 33.8051C247.857 33.8215 247.995 33.809 248.127 33.7685C248.258 33.728 248.38 33.6603 248.483 33.5699C248.587 33.4795 248.671 33.3683 248.729 33.2435C248.787 33.1188 248.818 32.9833 248.82 32.8457L248.812 32.8301Z" fill="#099137"/>
<path d="M250.879 34.0002C250.9 33.7737 251.005 33.5632 251.173 33.41C251.341 33.2568 251.56 33.1719 251.788 33.1719C252.015 33.1719 252.235 33.2568 252.403 33.41C252.571 33.5632 252.676 33.7737 252.697 34.0002C252.708 34.1266 252.694 34.2541 252.653 34.3744C252.613 34.4948 252.548 34.6054 252.462 34.6993C252.377 34.7931 252.273 34.868 252.157 34.9193C252.04 34.9706 251.915 34.9971 251.788 34.9971C251.661 34.9971 251.535 34.9706 251.419 34.9193C251.303 34.868 251.199 34.7931 251.113 34.6993C251.028 34.6054 250.963 34.4948 250.923 34.3744C250.882 34.2541 250.867 34.1266 250.879 34.0002Z" fill="#099137"/>
<path d="M258.367 33.6102V34.8426H253.422V33.8598L255.941 31.473C256.526 30.9192 256.628 30.5838 256.628 30.264C256.628 29.7492 256.269 29.484 255.583 29.484C255.32 29.4746 255.059 29.5293 254.823 29.6435C254.586 29.7577 254.381 29.9278 254.225 30.1392L253.118 29.4294C253.419 29.028 253.814 28.7069 254.268 28.4947C254.722 28.2824 255.222 28.1855 255.723 28.2126C257.182 28.2126 258.149 28.9926 258.149 30.147C258.142 30.553 258.039 30.9516 257.849 31.3107C257.66 31.6698 257.388 31.9792 257.057 32.214L255.551 33.6414L258.367 33.6102Z" fill="#099137"/>
<path d="M263.835 32.8379C263.835 33.9455 262.985 34.9517 261.121 34.9517C260.238 34.9695 259.369 34.7252 258.625 34.2497L259.21 33.0953C259.757 33.4816 260.412 33.6862 261.082 33.6803C261.862 33.6803 262.306 33.3761 262.306 32.8379C262.306 32.2997 261.947 32.0579 261.082 32.0579H260.395V31.0361L261.737 29.4761H258.96V28.2905H263.546V29.2733L262.08 30.9581C262.558 30.9862 263.007 31.197 263.334 31.547C263.66 31.8969 263.84 32.3592 263.835 32.8379Z" fill="#099137"/>
<path d="M264.49 34.0002C264.511 33.7737 264.616 33.5632 264.784 33.41C264.952 33.2568 265.171 33.1719 265.399 33.1719C265.626 33.1719 265.846 33.2568 266.014 33.41C266.182 33.5632 266.287 33.7737 266.308 34.0002C266.319 34.1266 266.305 34.2541 266.264 34.3744C266.224 34.4948 266.159 34.6054 266.073 34.6993C265.988 34.7931 265.884 34.868 265.768 34.9193C265.651 34.9706 265.526 34.9971 265.399 34.9971C265.272 34.9971 265.146 34.9706 265.03 34.9193C264.914 34.868 264.81 34.7931 264.724 34.6993C264.639 34.6054 264.574 34.4948 264.534 34.3744C264.493 34.2541 264.478 34.1266 264.49 34.0002Z" fill="#099137"/>
<path d="M269.365 28.2905V34.8425H267.852V29.5073H266.542V28.2905H269.365Z" fill="#099137"/>
<path d="M275.995 32.9394C275.995 34.1796 274.888 34.9518 273.226 34.9518C271.565 34.9518 270.473 34.1718 270.473 32.9394C270.467 32.6109 270.558 32.288 270.734 32.0106C270.91 31.7333 271.164 31.5138 271.463 31.3794C271.224 31.247 271.026 31.0524 270.888 30.8162C270.751 30.58 270.68 30.311 270.683 30.0378C270.683 28.8834 271.713 28.1658 273.203 28.1658C274.693 28.1658 275.738 28.8834 275.738 30.0378C275.742 30.3111 275.671 30.5805 275.534 30.8168C275.397 31.0532 275.197 31.2477 274.958 31.3794C275.267 31.5058 275.531 31.722 275.716 32.0001C275.901 32.2782 275.998 32.6054 275.995 32.9394ZM274.435 32.8926C274.435 32.3154 273.959 31.9566 273.203 31.9566C272.446 31.9566 271.986 32.3154 271.986 32.8926C271.986 33.4698 272.454 33.8442 273.203 33.8442C273.952 33.8442 274.459 33.4776 274.459 32.8926H274.435ZM272.22 30.1158C272.22 30.615 272.618 30.8958 273.234 30.8958C273.85 30.8958 274.264 30.5916 274.264 30.1158C274.264 29.64 273.85 29.3358 273.234 29.3358C272.618 29.3358 272.22 29.64 272.22 30.1158Z" fill="#099137"/>
<path d="M225.841 37.1279C225.749 37.1269 225.657 37.107 225.573 37.0695C225.488 37.0319 225.413 36.9775 225.35 36.9095L220.67 31.6913C220.563 31.5608 220.51 31.394 220.523 31.2257C220.536 31.0575 220.614 30.9007 220.739 30.7881C220.865 30.6755 221.029 30.6157 221.198 30.6212C221.367 30.6267 221.527 30.6971 221.645 30.8177L226.325 36.0359C226.44 36.1646 226.499 36.3334 226.491 36.5057C226.482 36.6781 226.405 36.84 226.278 36.9563C226.16 37.0675 226.003 37.1289 225.841 37.1279Z" fill="#099137"/>
<path d="M222.152 21.3876V20.5608H219.484V21.45C216.795 21.8224 214.348 23.2045 212.641 25.3157C210.933 27.4269 210.094 30.1088 210.292 32.8166C210.491 35.5245 211.713 38.0552 213.71 39.8947C215.707 41.7342 218.329 42.7446 221.044 42.7206C223.792 42.7363 226.441 41.6936 228.441 39.8086C230.44 37.9236 231.638 35.3412 231.784 32.597C231.931 29.8528 231.015 27.1576 229.227 25.0705C227.44 22.9833 224.917 21.6645 222.183 21.3876H222.152ZM221.013 41.4102C219.162 41.4102 217.352 40.8612 215.813 39.8327C214.274 38.8043 213.074 37.3424 212.366 35.6321C211.657 33.9218 211.472 32.0398 211.833 30.2241C212.194 28.4085 213.085 26.7407 214.394 25.4317C215.704 24.1227 217.371 23.2312 219.187 22.87C221.003 22.5089 222.885 22.6942 224.595 23.4027C226.305 24.1111 227.767 25.3108 228.796 26.8501C229.824 28.3893 230.373 30.199 230.373 32.0502C230.363 34.5295 229.373 36.9042 227.62 38.6574C225.867 40.4105 223.492 41.3999 221.013 41.4102Z" fill="#099137"/>
<path d="M222.596 18.4001H219.04V20.2098H222.596V18.4001Z" fill="#099137"/>
<g opacity="0.6">
<path d="M225.841 37.1279C225.749 37.1269 225.657 37.107 225.573 37.0695C225.488 37.0319 225.413 36.9775 225.35 36.9095L220.67 31.6913C220.563 31.5608 220.51 31.394 220.523 31.2257C220.536 31.0575 220.614 30.9007 220.739 30.7881C220.865 30.6755 221.029 30.6157 221.198 30.6212C221.367 30.6267 221.527 30.6971 221.645 30.8177L226.325 36.0359C226.44 36.1646 226.499 36.3334 226.491 36.5057C226.482 36.6781 226.405 36.84 226.278 36.9563C226.16 37.0675 226.003 37.1289 225.841 37.1279Z" fill="#099137"/>
<path d="M222.152 21.3876V20.5608H219.484V21.45C216.795 21.8224 214.348 23.2045 212.641 25.3157C210.933 27.4269 210.094 30.1088 210.292 32.8166C210.491 35.5245 211.713 38.0552 213.71 39.8947C215.707 41.7342 218.329 42.7446 221.044 42.7206C223.792 42.7363 226.441 41.6936 228.441 39.8086C230.44 37.9236 231.638 35.3412 231.784 32.597C231.931 29.8528 231.015 27.1576 229.227 25.0705C227.44 22.9833 224.917 21.6645 222.183 21.3876H222.152ZM221.013 41.4102C219.162 41.4102 217.352 40.8612 215.813 39.8327C214.274 38.8043 213.074 37.3424 212.366 35.6321C211.657 33.9218 211.472 32.0398 211.833 30.2241C212.194 28.4085 213.085 26.7407 214.394 25.4317C215.704 24.1227 217.371 23.2312 219.187 22.87C221.003 22.5089 222.885 22.6942 224.595 23.4027C226.305 24.1111 227.767 25.3108 228.796 26.8501C229.824 28.3893 230.373 30.199 230.373 32.0502C230.363 34.5295 229.373 36.9042 227.62 38.6574C225.867 40.4105 223.492 41.3999 221.013 41.4102Z" fill="#099137"/>
<path d="M222.596 18.4001H219.04V20.2098H222.596V18.4001Z" fill="#099137"/>
</g>
<path d="M273.047 150.142H276.994C273.632 153.644 268.788 157.1 264.186 160.594L261.066 162.887L260.996 162.934L257.954 160.391C254.054 157.03 249.974 153.52 247.081 150.033H252.938L255.505 141.227L259.334 158.106L262.86 149.464L265.083 154.284L267.735 145.86L270.66 154.081L273.047 150.142Z" fill="#099137"/>
<path d="M277.828 148.301H272.532L270.871 151.039L267.68 142.03L264.95 150.829L262.844 146.258L259.576 154.175L255.598 136.679L252.252 148.2H246.34C242.713 143.52 241.496 138.902 246.184 134.807C252.049 129.675 258.843 134.456 262.283 137.561C265.91 134.683 273.874 128.794 279.981 136.453C283.054 140.291 281.206 144.479 277.828 148.301Z" fill="#099137"/>
<path d="M256.62 122.07V128.622H255.107V123.287H253.796V122.07H256.62Z" fill="#099137"/>
<path d="M262.649 127.382V128.622H257.696V127.639L260.224 125.252C260.801 124.699 260.91 124.363 260.91 124.043C260.91 123.529 260.551 123.263 259.857 123.263C259.594 123.249 259.331 123.302 259.094 123.416C258.857 123.531 258.652 123.704 258.5 123.919L257.4 123.209C257.699 122.808 258.093 122.486 258.546 122.274C258.999 122.062 259.498 121.965 259.997 121.992C261.456 121.992 262.431 122.772 262.431 123.926C262.421 124.332 262.318 124.73 262.128 125.088C261.939 125.447 261.669 125.757 261.339 125.993L259.834 127.413L262.649 127.382Z" fill="#099137"/>
<path d="M268.226 126.563C268.226 127.717 267.376 128.731 265.504 128.731C264.621 128.748 263.753 128.504 263.008 128.029L263.601 126.867C264.145 127.256 264.797 127.463 265.465 127.46C266.245 127.46 266.69 127.14 266.69 126.61C266.69 126.079 266.354 125.759 265.13 125.759H263.453L263.788 122.07H267.782V123.287H265.052L264.95 124.527H265.481C267.462 124.527 268.226 125.401 268.226 126.563Z" fill="#099137"/>
<path d="M143.091 105.144H137.444V105.729H143.091V105.144Z" fill="#099137"/>
<path d="M161.959 105.144H147.397V105.729H161.959V105.144Z" fill="#099137"/>
<path d="M145.15 214.726H139.363V214.141C149.035 214.141 158.933 214.141 168.784 213.985V214.57C160.906 214.672 152.974 214.726 145.15 214.726Z" fill="#099137"/>
<path d="M134.605 214.687C130.447 214.687 126.196 214.625 121.976 214.562V213.977C126.196 214.04 130.439 214.079 134.597 214.102L134.605 214.687Z" fill="#099137"/>
<path d="M117.733 213.977H113.006V214.562H117.733V213.977Z" fill="#099137"/>
<path d="M172.325 85.9561H153.582V86.5411H172.325V85.9561Z" fill="#099137"/>
<path d="M150.384 85.9561H147.966V86.5411H150.384V85.9561Z" fill="#099137"/>
<path d="M240.731 223.384H227.245V223.969H240.731V223.384Z" fill="#099137"/>
<path d="M223.805 223.384H216.208V223.969H223.805V223.384Z" fill="#099137"/>
<path d="M199.789 100.3C188.869 101.267 173.854 106.08 174.205 108.537L158.496 128.092L153.574 129.917C153.574 129.917 163.878 104.419 166.553 100.23C168.425 97.3051 186.49 91.2913 195.936 87.9061C200.015 86.4397 203.736 89.2243 204.922 91.5799C204.922 91.5799 208.837 99.5047 199.789 100.3Z" fill="#E29471"/>
<path d="M158.496 128.092L158.137 132.35C158.027 133.667 157.408 134.889 156.413 135.759L152.599 139.105C152.376 139.297 152.091 139.403 151.796 139.403C151.501 139.403 151.216 139.297 150.992 139.105L148.403 136.906C148.172 136.712 148.021 136.441 147.978 136.143C147.935 135.845 148.003 135.542 148.169 135.291L151.078 130.884L154.588 126.204C154.588 126.204 158.629 126.454 158.496 128.092Z" fill="#E29471"/>
<path d="M140.899 240.965L119.129 249.499C118.498 248.953 114.793 241.628 114.793 241.628L134.098 232.713L140.899 240.965Z" fill="#E29471"/>
<path d="M119.839 251.519C119.829 251.473 119.832 251.424 119.849 251.38C119.865 251.336 119.894 251.297 119.933 251.269C119.973 251.243 120.021 251.229 120.069 251.229C120.118 251.229 120.165 251.243 120.206 251.269C120.338 251.363 123.614 253.562 123.934 255.232C123.973 255.385 123.979 255.544 123.954 255.699C123.928 255.855 123.871 256.004 123.786 256.136C123.704 256.3 123.572 256.434 123.41 256.518C123.247 256.602 123.062 256.632 122.881 256.604C122.21 256.519 121.516 255.505 120.962 254.366C120.496 253.456 120.12 252.502 119.839 251.519ZM123.357 254.912C122.603 253.789 121.639 252.822 120.518 252.065C121.095 253.804 122.218 256.027 122.99 256.16C123.092 256.16 123.24 256.16 123.427 255.879C123.48 255.8 123.516 255.71 123.532 255.616C123.548 255.522 123.545 255.426 123.521 255.333C123.484 255.185 123.432 255.041 123.365 254.904L123.357 254.912Z" fill="#099137"/>
<path d="M119.878 251.371C119.89 251.33 119.913 251.294 119.945 251.266C119.977 251.238 120.016 251.221 120.058 251.215C120.167 251.215 122.639 250.24 124.129 250.903C124.336 251.005 124.52 251.149 124.67 251.324C124.82 251.5 124.933 251.704 125.003 251.924C125.098 252.099 125.129 252.3 125.092 252.495C125.055 252.69 124.952 252.866 124.8 252.993C123.887 253.656 120.947 252.494 119.941 251.667L119.878 251.589V251.371ZM123.911 251.371C122.821 251.09 121.672 251.153 120.619 251.55C121.82 252.33 124.059 253.048 124.566 252.611C124.613 252.572 124.745 252.478 124.605 252.096L124.511 251.979C124.397 251.701 124.183 251.475 123.911 251.347V251.371Z" fill="#099137"/>
<path d="M120.799 249.358L119.441 248.18C118.694 247.532 118.094 246.732 117.68 245.834C117.265 244.935 117.047 243.959 117.039 242.97V240.63C116.961 240.452 116.823 240.308 116.649 240.221C116.475 240.134 116.277 240.111 116.087 240.154L108.116 241.558C107.336 241.761 107.086 243.516 107.125 243.602C108.911 249.163 113.638 260.762 115.346 264.498C117.055 268.234 121.001 267.049 120.635 265.356C119.005 257.782 119.902 254.233 120.877 251.137C121.076 250.555 121.048 249.92 120.799 249.358Z" fill="#099137"/>
<g opacity="0.2">
<path d="M127.343 235.833L134.098 232.713L140.899 240.965L130.939 244.865L129.332 242.908C128.365 241.733 127.77 240.296 127.624 238.781L127.343 235.833Z" fill="black"/>
</g>
<path d="M166.499 156.959C165.808 158.543 165.308 160.203 165.009 161.905C163.262 170.851 160.828 201.201 159.245 212.737C159.052 213.885 158.569 214.964 157.841 215.872C157.113 216.78 156.165 217.486 155.087 217.924C148.793 220.888 144.706 221.824 130.51 233.446C132.218 237.081 133.848 239.639 135.4 243.906C135.4 243.906 162.763 233.392 169.018 228.244C178.23 220.662 189.446 180.82 192.707 170.524C194.555 164.689 196.693 157.708 193.284 152.669C191.365 149.846 172.661 141.25 166.499 156.959Z" fill="#263238"/>
<path d="M202.02 89.5596C204.087 91.8996 205.054 93.4596 204.43 100.292C203.206 113.552 204.017 134.659 203.549 137.912C202.8 142.873 175.11 143.52 170.04 138.949L159.986 98.3892C159.659 97.0742 159.611 95.7054 159.845 94.3708C160.079 93.0362 160.589 91.7652 161.344 90.6398C162.098 89.5143 163.08 88.5592 164.226 87.8358C165.371 87.1124 166.656 86.6368 167.996 86.4396C170.297 86.0886 195.733 82.5162 202.02 89.5596Z" fill="#099137"/>
<path d="M203.58 137.912C204.357 142.397 204.541 146.966 204.126 151.499C203.451 159.338 205.77 167.141 210.616 173.339C210.616 173.339 174.447 168.074 165.883 158.699L170.04 138.949C181.218 140.039 192.49 139.691 203.58 137.912Z" fill="#263238"/>
<path d="M178.448 76.2139L177.856 75.7303C176.124 73.5385 175.453 71.0503 174.736 67.1503C174.541 66.1441 174.346 65.0599 174.127 63.8587C173.808 62.2665 173.861 60.622 174.283 59.0539C174.51 58.2402 174.83 57.4551 175.235 56.7139C176.163 60.1771 176.296 63.7729 176.615 67.3219C176.786 70.3598 177.404 73.356 178.448 76.2139Z" fill="#263238"/>
<path d="M179.221 72.0331C179.657 76.0267 179.962 81.6193 177.809 84.7861C177.429 85.3145 177.216 85.9449 177.197 86.5957C177.179 87.2465 177.357 87.8878 177.707 88.4365C178.979 90.3631 181.896 93.2569 188.627 96.5875C190.601 94.1539 191.318 92.1727 191.451 90.6673C191.512 89.8099 191.309 88.9543 190.868 88.2163C190.427 87.4784 189.77 86.8936 188.986 86.5411C185.757 85.0279 186.108 83.0935 187.106 80.0749L179.221 72.0331Z" fill="#E29471"/>
<path opacity="0.2" d="M182.411 75.2778L187.021 80.0748C186.742 80.8691 186.534 81.6859 186.397 82.5162C184.532 82.0872 181.717 80.1762 181.467 78.0858C181.552 77.0876 181.875 76.1245 182.411 75.2778Z" fill="black"/>
<path d="M196.139 71.955C195.939 74.2577 194.889 76.4035 193.193 77.9739C191.497 79.5443 189.277 80.4268 186.966 80.4492H186.904C185.11 80.4574 183.346 79.9948 181.787 79.1076C181.22 78.7865 180.682 78.4158 180.18 78C179.962 77.8284 179.759 77.649 179.564 77.4852C178.956 76.9518 178.397 76.3644 177.895 75.7302C176.163 73.5384 175.492 71.0502 174.775 67.1502C174.58 66.144 174.385 65.0598 174.166 63.8586C173.847 62.2664 173.9 60.6219 174.322 59.0538C174.549 58.2401 174.869 57.455 175.274 56.7138C175.453 56.3811 175.653 56.0606 175.874 55.7544C177.071 54.0236 178.776 52.7079 180.754 51.9896C182.731 51.2712 184.883 51.1858 186.911 51.7452C190.39 52.6734 192.785 55.497 194.298 58.9602C194.446 59.3034 194.587 59.6544 194.719 60.0054C196.062 63.8364 196.547 67.9159 196.139 71.955Z" fill="#E29471"/>
<path d="M186.194 64.311C186.272 64.9272 186.654 65.3952 187.044 65.3484C187.434 65.3016 187.707 64.7478 187.637 64.1316C187.567 63.5154 187.169 63.0552 186.779 63.102C186.389 63.1488 186.155 63.726 186.194 64.311Z" fill="#263238"/>
<path d="M193.034 63.453C193.12 64.0848 193.502 64.5372 193.892 64.4904C194.282 64.4436 194.555 63.8898 194.477 63.2736C194.399 62.6574 194.017 62.1972 193.627 62.2518C193.237 62.3064 192.964 62.8368 193.034 63.453Z" fill="#263238"/>
<path d="M191.1 64.8414C191.816 66.1811 192.711 67.417 193.76 68.5152C193.477 68.7764 193.141 68.973 192.774 69.0915C192.408 69.21 192.02 69.2476 191.638 69.2016L191.1 64.8414Z" fill="#EA573F"/>
<path d="M183.3 63.2658C183.377 63.2683 183.452 63.2461 183.515 63.2026C183.578 63.1591 183.626 63.0965 183.651 63.024C183.913 62.4964 184.283 62.0292 184.735 61.6518C185.188 61.2745 185.714 60.9954 186.28 60.8322C186.372 60.8032 186.449 60.7405 186.497 60.6566C186.545 60.5726 186.559 60.4737 186.537 60.3798C186.526 60.3345 186.506 60.2919 186.479 60.2544C186.451 60.2168 186.416 60.1852 186.376 60.1612C186.337 60.1373 186.292 60.1215 186.246 60.1148C186.2 60.1082 186.153 60.1107 186.108 60.1224C185.427 60.3117 184.795 60.647 184.256 61.1049C183.717 61.5628 183.285 62.1325 182.988 62.7744C182.972 62.8189 182.965 62.8662 182.967 62.9135C182.969 62.9608 182.981 63.0072 183.001 63.05C183.022 63.0927 183.05 63.1311 183.085 63.1628C183.121 63.1944 183.162 63.2189 183.206 63.2346C183.235 63.2511 183.267 63.2617 183.3 63.2658Z" fill="#263238"/>
<path d="M194.696 59.9742C194.76 59.975 194.824 59.9597 194.881 59.9297C194.938 59.8998 194.987 59.8561 195.023 59.8026C195.073 59.7194 195.089 59.6201 195.067 59.5255C195.046 59.4309 194.988 59.3485 194.906 59.2956C194.432 58.9651 193.882 58.7584 193.307 58.6944C192.732 58.6304 192.151 58.711 191.615 58.929C191.53 58.9666 191.464 59.0361 191.43 59.1222C191.397 59.2084 191.399 59.3044 191.435 59.3892C191.454 59.432 191.481 59.4707 191.515 59.503C191.548 59.5353 191.588 59.5605 191.632 59.5772C191.675 59.5939 191.722 59.6017 191.768 59.6003C191.815 59.5988 191.861 59.588 191.903 59.5686C192.326 59.4104 192.781 59.3569 193.23 59.4125C193.678 59.4682 194.106 59.6315 194.477 59.8884C194.54 59.9388 194.616 59.9687 194.696 59.9742Z" fill="#263238"/>
<path opacity="0.2" d="M178.448 69.2173C178.129 69.6385 177.099 67.392 176.576 67.2828C175.958 67.1555 175.327 67.1057 174.697 67.1347C174.502 66.1285 174.307 65.0443 174.088 63.8431C173.769 62.2509 173.822 60.6064 174.244 59.0383C174.471 58.2246 174.791 57.4395 175.196 56.6983C175.149 56.5059 175.094 56.3109 175.032 56.1133C175.28 55.9655 175.541 55.8402 175.812 55.7388C176.415 55.5038 177.07 55.4364 177.707 55.5438C178.181 55.6553 178.62 55.8784 178.989 56.1946C179.358 56.5108 179.646 56.9109 179.829 57.3612C177.193 62.2518 179.439 67.9225 178.448 69.2173Z" fill="black"/>
<path d="M177.84 75.7146C174.946 73.2654 172.38 70.2546 171.226 66.6198C170.65 64.572 170.632 62.4075 171.174 60.3504C171.715 58.2933 172.797 56.4184 174.307 54.9198C174.541 54.6936 174.931 54.795 175.227 54.9198C175.523 55.0446 174.798 55.2942 174.884 55.5438C174.97 55.7934 174.985 55.8948 175.032 56.0586C175.079 56.2224 175.149 56.4486 175.196 56.6436C174.791 57.3848 174.471 58.1699 174.244 58.9836C173.822 60.5517 173.769 62.1962 174.088 63.7884C174.307 64.9896 174.502 66.0738 174.697 67.08C175.438 71.019 176.108 73.5228 177.84 75.7146Z" fill="#263238"/>
<path d="M172.778 69.9348C173.412 71.2314 174.534 72.2242 175.898 72.696C177.7 73.2888 178.69 71.6742 178.238 69.888C177.832 68.2812 176.428 66.0426 174.587 66.1908C174.178 66.2441 173.789 66.3985 173.455 66.6402C173.12 66.8819 172.851 67.2031 172.673 67.5749C172.494 67.9466 172.41 68.3571 172.43 68.7692C172.45 69.1813 172.572 69.5819 172.786 69.9348H172.778Z" fill="#E29471"/>
<path d="M257.603 251.878L259.405 275.192C258.695 275.636 250.918 279.263 250.606 277.04C249.67 270.247 247.728 255.98 247.728 255.98L257.603 251.878Z" fill="#E29471"/>
<path d="M261.542 275.106C261.495 275.102 261.449 275.085 261.412 275.056C261.374 275.027 261.346 274.987 261.331 274.942C261.316 274.896 261.316 274.847 261.33 274.801C261.343 274.755 261.371 274.714 261.409 274.685C261.534 274.576 264.599 272.095 266.284 272.267C266.443 272.275 266.599 272.316 266.741 272.387C266.883 272.458 267.009 272.558 267.111 272.68C267.243 272.806 267.332 272.971 267.364 273.15C267.396 273.33 267.371 273.515 267.29 273.679C267.017 274.303 265.847 274.669 264.592 274.864C263.585 275.042 262.564 275.123 261.542 275.106ZM265.816 272.766C264.52 273.157 263.312 273.795 262.259 274.646C264.092 274.599 266.549 274.186 266.9 273.484C266.939 273.382 266.971 273.242 266.76 272.977C266.699 272.905 266.624 272.846 266.539 272.803C266.455 272.76 266.363 272.734 266.269 272.727C266.116 272.711 265.961 272.711 265.808 272.727L265.816 272.766Z" fill="#099137"/>
<path d="M261.409 275.02C261.375 274.998 261.348 274.966 261.331 274.929C261.314 274.891 261.309 274.85 261.316 274.81C261.316 274.693 261.136 272.048 262.205 270.824C262.363 270.656 262.554 270.521 262.766 270.429C262.978 270.337 263.206 270.288 263.437 270.286C263.632 270.245 263.835 270.273 264.012 270.365C264.188 270.458 264.327 270.609 264.404 270.793C264.771 271.853 262.798 274.334 261.713 275.051L261.62 275.09L261.409 275.02ZM262.564 271.167C261.982 272.125 261.71 273.239 261.784 274.357C262.86 273.437 264.225 271.502 263.952 270.902C263.952 270.847 263.882 270.691 263.468 270.707L263.336 270.769C263.037 270.798 262.76 270.94 262.564 271.167Z" fill="#099137"/>
<path d="M259.74 273.562L250.286 274.615C250.091 274.636 249.909 274.727 249.773 274.869C249.638 275.012 249.557 275.198 249.545 275.395L248.57 283.429C248.524 284.209 250.13 284.989 250.224 284.989C256.066 284.903 268.523 283.772 272.618 283.226C276.713 282.68 276.705 278.546 274.958 278.421C267.236 277.766 264.1 275.878 261.425 274.037C260.946 273.667 260.342 273.496 259.74 273.562Z" fill="#099137"/>
<g opacity="0.2">
<path d="M248.695 263.032L247.728 255.973L257.603 251.878L258.227 261.425L248.695 263.032Z" fill="black"/>
</g>
<path d="M188.027 164.853C192.988 173.612 217.105 194.048 228.743 211.513C231.917 216.286 239.585 249.163 246.956 258.476L258.656 257.4C262.891 249.163 252.892 206.575 252.892 206.575C249.374 187.855 228.509 167.029 205.507 145.93C201.646 142.397 195.905 141.328 190.125 144.768C189.049 145.392 183.222 156.351 188.027 164.853Z" fill="#263238"/>
<path d="M193.245 151.156C192.325 151.367 191.365 150.79 190.663 149.596C189.931 148.35 189.514 146.945 189.446 145.501L186.896 148.808C186.709 149.146 186.437 149.43 186.108 149.631C185.778 149.832 185.402 149.944 185.016 149.955C184.825 149.934 184.641 149.872 184.475 149.773C184.31 149.675 184.167 149.543 184.057 149.386C183.871 149.097 183.746 148.775 183.687 148.437C183.628 148.1 183.637 147.754 183.713 147.42C184.017 146.175 184.784 145.092 185.857 144.392C186.931 143.692 188.231 143.428 189.493 143.653L189.4 143.317L190.18 143.107L190.226 143.294L190.398 143.075V143.403C190.985 143.295 191.59 143.344 192.152 143.545C192.713 143.746 193.212 144.093 193.596 144.55C194.393 145.583 194.834 146.848 194.852 148.153C194.93 149.347 194.571 150.852 193.331 151.148L193.245 151.156ZM190.25 144.23V144.386C190.103 146.069 190.482 147.756 191.334 149.214C191.74 149.9 192.379 150.571 193.097 150.407C193.931 150.205 194.08 148.925 194.033 148.2C194.021 147.072 193.646 145.978 192.964 145.08C192.696 144.767 192.36 144.519 191.981 144.355C191.603 144.192 191.192 144.117 190.78 144.136L190.281 144.261L190.25 144.23ZM187.691 144.425C187.191 144.538 186.715 144.741 186.287 145.025C185.83 145.309 185.433 145.681 185.12 146.118C184.807 146.556 184.583 147.052 184.462 147.576C184.356 148.039 184.432 148.524 184.673 148.933C184.722 149.005 184.785 149.065 184.859 149.111C184.933 149.157 185.016 149.187 185.102 149.198C185.539 149.245 185.944 148.793 186.295 148.34L189.283 144.44H189.142L189.103 144.3C188.629 144.252 188.15 144.294 187.691 144.425Z" fill="#099137"/>
<path d="M184.189 161.71L183.542 161.304C186.736 156.182 188.567 150.329 188.861 144.3H189.641C189.341 150.474 187.464 156.468 184.189 161.71Z" fill="#099137"/>
<path d="M199.337 161.561L198.557 161.655C197.738 155.146 194.54 149.17 189.579 144.877L190.078 144.3C195.189 148.714 198.487 154.862 199.337 161.561Z" fill="#099137"/>
<path d="M131.82 236.137L131.469 235.459C140.049 230.974 162.388 218.299 162.388 213.548C162.388 203.806 171.92 139.768 172.013 139.129L172.793 139.238C172.7 139.885 163.184 203.869 163.184 213.548C163.184 219.71 133.123 235.474 131.82 236.137Z" fill="white"/>
<path d="M161.905 91.7748C162.934 88.6548 169.385 88.062 171.421 90.5268C180.196 101.174 189.938 111.08 189.938 111.08L214.391 106.018L218.361 109.457C218.361 109.457 193.112 122.101 188.136 122.109C182.801 122.109 169.946 109.715 163.176 102.281C158.785 97.4064 161.905 91.7748 161.905 91.7748Z" fill="#E29471"/>
<path d="M214.391 106.018L218.291 104.286C219.497 103.748 220.865 103.701 222.105 104.153L226.871 105.893C227.147 105.993 227.377 106.19 227.52 106.446C227.663 106.702 227.71 107.002 227.651 107.289L226.964 110.62C226.908 110.916 226.743 111.18 226.502 111.362C226.262 111.543 225.962 111.629 225.662 111.602L220.397 111.173L214.617 110.339C214.617 110.339 212.893 106.681 214.391 106.018Z" fill="#E29471"/>
<path d="M216.762 111.509L215.038 112.749L212.012 106.33L213.907 105.44L216.762 111.509Z" fill="#263238"/>
<path d="M211.195 106.029L214.018 104.699C214.205 104.611 214.419 104.6 214.614 104.67C214.809 104.74 214.968 104.885 215.056 105.072L215.305 105.601L211.072 107.596L210.822 107.067C210.734 106.88 210.724 106.665 210.794 106.47C210.864 106.276 211.008 106.117 211.195 106.029Z" fill="#263238"/>
<path d="M172.201 63.18C173.09 60.216 175.898 58.1958 178.799 57.135C181.701 56.0742 184.829 55.7232 187.777 54.795C189.735 54.171 191.888 52.9386 192.083 50.895C192.1 50.2612 191.968 49.6323 191.697 49.0591C191.426 48.486 191.023 47.9846 190.523 47.5956C189.516 46.8274 188.395 46.222 187.2 45.8016C186.339 45.3577 185.375 45.153 184.408 45.2088C183.928 45.2582 183.487 45.4914 183.175 45.8593C182.864 46.2272 182.708 46.7013 182.738 47.1822C180.242 45.6222 176.498 46.0356 174.158 47.8296C172.598 49.0386 171.561 51.402 172.739 53.001C171.382 52.3146 169.166 53.0946 168.402 54.405C168.04 55.0737 167.934 55.8518 168.105 56.593C168.276 57.3342 168.711 57.9874 169.33 58.4298C167.263 58.344 165.352 60.606 166.132 62.517C166.912 64.428 171.6 65.1534 172.201 63.18Z" fill="#263238"/>
<path d="M191.74 71.3935C191.316 72.6234 190.982 73.8825 190.741 75.1609H190.047C186.927 75.0439 185.539 73.9675 184.922 72.8209C184.632 72.2456 184.485 71.6088 184.493 70.9645C184.486 70.6012 184.531 70.2388 184.626 69.8881C186.233 70.9333 189.127 71.2609 190.679 71.3701C191.326 71.3935 191.74 71.3935 191.74 71.3935Z" fill="#263238"/>
<path d="M190.679 71.3388L190.351 72.4464C187.426 72.3294 185.383 71.8536 184.493 70.9332C184.486 70.5699 184.531 70.2075 184.626 69.8568C186.233 70.902 189.127 71.2296 190.679 71.3388Z" fill="white"/>
<path d="M190.047 75.1452C186.927 75.0282 185.539 73.9518 184.922 72.8052C186.101 72.8615 187.26 73.1255 188.347 73.5852C189.063 73.9136 189.658 74.4595 190.047 75.1452Z" fill="#DE5753"/>
</svg>
